<svg xmlns="http://www.w3.org/2000/svg" width="40" height="40" viewBox="0 0 40 40">
    <path fill="#3C96D2" fill-rule="evenodd" d="M16.175 29.017c-7.08 0-12.84-5.76-12.84-12.84S9.095 3.33 16.175 3.33s12.847 5.767 12.847 12.847c0 7.08-5.767 12.84-12.847 12.84m23.287 7.567L28.855 26.097c2.16-2.747 3.5-6.167 3.5-9.92 0-8.92-7.26-16.18-16.18-16.18S.002 7.257.002 16.177 7.255 32.35 16.175 32.35c3.96 0 7.547-1.486 10.36-3.86l10.58 10.46c.327.327.747.48 1.174.48a1.664 1.664 0 0 0 1.173-2.847"/>
</svg>
