<svg xmlns="http://www.w3.org/2000/svg" width="40" height="40" viewBox="0 0 40 40">
    <path fill="#3D95D1" fill-rule="evenodd" d="M6.163 24.8h12.651c.38 0 .734.134 1.025.384L31.952 35.59c.76-2.892 1.885-8.294 1.885-14.79v-1.6c0-6.496-1.126-11.898-1.885-14.79L19.84 14.815c-.291.25-.646.384-1.025.384H6.163v9.6zM32.78 40a1.57 1.57 0 0 1-1.025-.384L18.232 28H4.582A1.591 1.591 0 0 1 3 26.4V13.6c0-.884.708-1.6 1.581-1.6h13.651L31.756.383a1.57 1.57 0 0 1 1.43-.332c.506.14.91.512 1.081 1.01C34.381 1.377 37 8.909 37 19.2v1.6c0 10.291-2.619 17.824-2.733 18.138-.17.499-.575.87-1.081 1.01a1.754 1.754 0 0 1-.405.052z"/>
</svg>
