<svg xmlns="http://www.w3.org/2000/svg" width="40" height="40" viewBox="0 0 40 40">
    <path fill="#3C96D2" fill-rule="evenodd" d="M36.923 16.357c0-.85-.69-1.539-1.538-1.539H24.338a5.39 5.39 0 0 0-5.384 5.385 5.39 5.39 0 0 0 5.384 5.385h11.047c.849 0 1.538-.69 1.538-1.539v-7.692zm-5.175 12.308h-7.41c-4.67 0-8.461-3.797-8.461-8.462 0-4.665 3.79-8.461 8.461-8.461h7.41V8.615c0-.849-.696-1.538-1.539-1.538H4.615c-.849 0-1.538.69-1.538 1.538v23.767c0 .836.701 1.538 1.538 1.538H30.21a1.56 1.56 0 0 0 1.539-1.538v-3.717zM40 16.357v7.692a4.621 4.621 0 0 1-4.615 4.616h-.56v3.717a4.621 4.621 0 0 1-4.616 4.615H4.615A4.617 4.617 0 0 1 0 32.382V8.615A4.621 4.621 0 0 1 4.615 4H30.21a4.625 4.625 0 0 1 4.616 4.615v3.127h.56A4.621 4.621 0 0 1 40 16.357zm-13.458 3.846a2.12 2.12 0 0 1-2.117 2.117 2.12 2.12 0 0 1-2.117-2.117 2.12 2.12 0 0 1 2.117-2.117 2.12 2.12 0 0 1 2.117 2.117z"/>
</svg>
