<svg xmlns="http://www.w3.org/2000/svg" width="40" height="40" viewBox="0 0 40 40">
    <path fill="#3D95D1" fill-rule="evenodd" d="M35.385 34.898H4.615c-.849 0-1.538-.695-1.538-1.551V20h33.846v13.346c0 .856-.69 1.55-1.538 1.55M4.615 9.305h1.539v2.52c0 .855.69 1.55 1.538 1.55.85 0 1.539-.695 1.539-1.55v-2.52h5.194v2.52c0 .855.689 1.55 1.538 1.55a1.55 1.55 0 0 0 1.539-1.55v-2.52h4.806v2.52c0 .855.689 1.55 1.538 1.55.85 0 1.539-.695 1.539-1.55v-2.52h5.384v2.52c0 .855.69 1.55 1.539 1.55s1.538-.695 1.538-1.55v-2.52h1.539c.849 0 1.538.695 1.538 1.551V16.9H3.077v-6.044c0-.856.69-1.55 1.538-1.55m30.77-3.103h-1.539v-2.65c0-.856-.69-1.55-1.538-1.55-.85 0-1.539.694-1.539 1.55v2.65h-5.384v-2.65c0-.856-.69-1.55-1.539-1.55-.85 0-1.538.694-1.538 1.55v2.65h-4.806v-2.65a1.55 1.55 0 0 0-1.539-1.55c-.85 0-1.538.694-1.538 1.55v2.65H9.23v-2.65c0-.856-.69-1.55-1.539-1.55s-1.538.694-1.538 1.55v2.65H4.615C2.074 6.202 0 8.287 0 10.855v22.492C0 35.915 2.074 38 4.615 38h30.77C37.926 38 40 35.915 40 33.347V10.855c0-2.568-2.074-4.653-4.615-4.653"/>
</svg>
