<svg xmlns="http://www.w3.org/2000/svg" width="40" height="40" viewBox="0 0 40 40">
    <g fill="#3C96D2" fill-rule="evenodd">
        <path d="M38.462 23.257c-.85 0-1.539.685-1.539 1.53v8.154H3.077V24.53c0-.844-.69-1.529-1.539-1.529S0 23.685 0 24.53v9.94C0 35.32.69 36 1.538 36h36.924C39.31 36 40 35.32 40 34.47v-9.684c0-.844-.69-1.53-1.538-1.53"/>
        <path d="M18.963 24.224c.263.216.589.318.903.318.32 0 .646-.102.903-.318l6.44-5.202a1.412 1.412 0 0 0 .206-1.994 1.44 1.44 0 0 0-2.012-.204l-4.108 3.32V5.417c0-.782-.64-1.417-1.429-1.417-.783 0-1.429.635-1.429 1.417v14.727l-4.108-3.32a1.433 1.433 0 0 0-2.006.204 1.412 1.412 0 0 0 .2 1.994l6.44 5.202z"/>
    </g>
</svg>
