<svg xmlns="http://www.w3.org/2000/svg" width="40" height="40" viewBox="0 0 40 40">
    <path fill="#3D95D1" fill-rule="evenodd" d="M12.035 15.977c-3.394 0-6.161 2.73-6.161 6.093 0 3.362 2.767 6.092 6.16 6.092h15.077c4.542 0 8.236-3.653 8.236-8.145 0-4.505-3.694-8.158-8.236-8.158-3.322 0-6.305 1.955-7.597 4.982a1.623 1.623 0 0 1-.783.814c-.02.02-.033.045-.053.064a1.644 1.644 0 0 1-2.31.013 6.147 6.147 0 0 0-4.333-1.755M27.11 31.39H12.035c-5.202 0-9.425-4.176-9.425-9.32 0-5.145 4.223-9.32 9.425-9.32 1.853 0 3.635.522 5.142 1.503 2.056-3.46 5.802-5.622 9.934-5.622 6.337 0 11.5 5.106 11.5 11.386 0 6.267-5.163 11.373-11.5 11.373"/>
</svg>
