<svg xmlns="http://www.w3.org/2000/svg" width="40" height="40" viewBox="0 0 40 40">
    <path fill="#3D95D1" fill-rule="evenodd" d="M17.945 33.642c0-1.13.921-2.057 2.057-2.057a2.06 2.06 0 0 1 2.052 2.057 2.056 2.056 0 0 1-2.052 2.058 2.057 2.057 0 0 1-2.057-2.058zm4.904-27.476c0 .826-.67 1.495-1.495 1.495h-2.71a1.496 1.496 0 0 1 0-2.99h2.71a1.5 1.5 0 0 1 1.495 1.495zm7.165 23.457v4.396c0 1.65-1.345 2.99-2.99 2.99H12.98a2.995 2.995 0 0 1-2.99-2.99v-4.396h20.023zM9.99 26.633V5.98a3 3 0 0 1 2.99-2.99h14.044a3 3 0 0 1 2.99 2.99v20.652H9.99zM33.005 5.98c0-1.52-.616-2.871-1.555-3.93C30.35.813 28.8 0 27.024 0H12.98C11.199 0 9.65.813 8.555 2.051 7.61 3.11 7 4.461 7 5.981v28.038c0 1.513.61 2.865 1.543 3.918C9.638 39.18 11.193 40 12.981 40h14.043c1.782 0 3.337-.82 4.438-2.063.927-1.053 1.543-2.405 1.543-3.918V5.981z"/>
</svg>
