<svg xmlns="http://www.w3.org/2000/svg" width="40" height="40" viewBox="0 0 40 40">
    <path fill="#3D95D1" fill-rule="evenodd" d="M39.651 23.273l-3.63-4.206c-.125-.139-.303-.168-.47-.255-.528-.283-1.158-.347-1.645.058l-4.331 3.557a1.424 1.424 0 0 0-.185 2.04c.298.341.72.515 1.141.515a1.5 1.5 0 0 0 .957-.342l1.432-1.176c-1.563 5.538-6.72 9.64-12.887 9.64-5.312 0-10.136-3.07-12.281-7.81-.333-.735-1.23-1.06-1.955-.74-.755.324-1.093 1.175-.76 1.91C7.65 32.259 13.538 36 20.032 36c7.8 0 14.307-5.347 15.964-12.46l1.379 1.598c.297.342.713.516 1.14.516.333 0 .678-.11.957-.336.624-.516.707-1.431.178-2.045M3.967 20.921l-3.618-4.2a1.424 1.424 0 0 1 .178-2.039 1.499 1.499 0 0 1 2.097.174l1.373 1.599C5.648 9.34 12.167 4 19.96 4c6.601 0 12.525 3.83 15.104 9.761.314.736-.036 1.582-.79 1.9-.773.307-1.629-.035-1.95-.776-2.109-4.855-6.957-7.989-12.364-7.989-6.173 0-11.33 4.102-12.887 9.634l1.438-1.176a1.498 1.498 0 0 1 2.092.18 1.42 1.42 0 0 1-.179 2.039l-4.337 3.55c-.28.233-.624.343-.962.343-.06 0-.107-.076-.179-.081a1.46 1.46 0 0 1-.98-.464"/>
</svg>
